/* XPM */
static char * w1_xpm[] = {
"38 39 251 2",
"  	c None",
". 	c #9BC782",
"+ 	c #96B67A",
"@ 	c #86A26E",
"# 	c #7A8A66",
"$ 	c #66828A",
"% 	c #5E82AE",
"& 	c #457EB9",
"* 	c #3764B3",
"= 	c #4872BE",
"- 	c #3B71C8",
"; 	c #2A5EB7",
"> 	c #ABC693",
", 	c #B3C3B0",
"' 	c #C1C9B3",
") 	c #82A6D6",
"! 	c #588ACF",
"~ 	c #5485D2",
"{ 	c #356AC7",
"] 	c #1A52B3",
"^ 	c #144DA4",
"/ 	c #B2CEB2",
"( 	c #C8D5BC",
"_ 	c #AEC2C6",
": 	c #6092DC",
"< 	c #4079D0",
"[ 	c #4782C8",
"} 	c #1E5BBD",
"| 	c #1556BE",
"1 	c #0B43A7",
"2 	c #A2C199",
"3 	c #C2DEA2",
"4 	c #92BABE",
"5 	c #4E81D3",
"6 	c #3A82BE",
"7 	c #468FBA",
"8 	c #64A8B0",
"9 	c #7BB3E7",
"0 	c #6E98DA",
"a 	c #52A29E",
"b 	c #2A827C",
"c 	c #196D76",
"d 	c #165E1E",
"e 	c #83BBB3",
"f 	c #D6EABE",
"g 	c #CBE7AF",
"h 	c #C2E59A",
"i 	c #88D04E",
"j 	c #87C25F",
"k 	c #94D755",
"l 	c #65B1B6",
"m 	c #4C97DA",
"n 	c #4F9B8A",
"o 	c #76C757",
"p 	c #92D666",
"q 	c #6198E0",
"r 	c #68AA8C",
"s 	c #56BA52",
"t 	c #2A9A16",
"u 	c #228E1A",
"v 	c #276E0F",
"w 	c #7EA64E",
"x 	c #9ED262",
"y 	c #83BEEA",
"z 	c #9AC6B6",
"A 	c #CCFA8A",
"B 	c #C6F095",
"C 	c #B8EF7C",
"D 	c #A0DE54",
"E 	c #95DF4F",
"F 	c #6CC26E",
"G 	c #A6E069",
"H 	c #7AB993",
"I 	c #5CAE75",
"J 	c #65C041",
"K 	c #49B117",
"L 	c #3D9414",
"M 	c #58A440",
"N 	c #9AD6AA",
"O 	c #ADE686",
"P 	c #CAFE76",
"Q 	c #DAFE9D",
"R 	c #BEF36A",
"S 	c #B0ED69",
"T 	c #6CBA34",
"U 	c #71C35A",
"V 	c #88C87C",
"W 	c #5BA8D1",
"X 	c #52BE1A",
"Y 	c #40AC3E",
"Z 	c #1E7912",
"` 	c #1E64AA",
" .	c #4EA61E",
"..	c #CEF6B9",
"+.	c #DDFAB3",
"@.	c #C2F276",
"#.	c #A6E754",
"$.	c #78C03C",
"%.	c #78D325",
"&.	c #85D239",
"*.	c #4DB154",
"=.	c #568DDC",
"-.	c #529AD7",
";.	c #388C14",
">.	c #0E4852",
",.	c #2070A6",
"'.	c #DEF3C6",
").	c #F6FBE1",
"!.	c #F0F5E0",
"~.	c #E8F2D6",
"{.	c #EAFEB6",
"].	c #4790C9",
"^.	c #3486DC",
"/.	c #2970D8",
"(.	c #2C6FCA",
"_.	c #126E22",
":.	c #0E4282",
"<.	c #2682AA",
"[.	c #ECFACE",
"}.	c #F5F6EE",
"|.	c #5FB76F",
"1.	c #4AA4AA",
"2.	c #429ACA",
"3.	c #3D81D7",
"4.	c #3477D0",
"5.	c #2E72AE",
"6.	c #0C4AB5",
"7.	c #0E3366",
"8.	c #063778",
"9.	c #125262",
"0.	c #216FD7",
"a.	c #B2F262",
"b.	c #E7F4EC",
"c.	c #4A8DDB",
"d.	c #4682D8",
"e.	c #2B68C7",
"f.	c #1050B8",
"g.	c #0C430A",
"h.	c #11510C",
"i.	c #307CE1",
"j.	c #DCF8DA",
"k.	c #6EC2D2",
"l.	c #3A8AEA",
"m.	c #3470CB",
"n.	c #094D0B",
"o.	c #1A5507",
"p.	c #46A266",
"q.	c #AFDC88",
"r.	c #8EDADA",
"s.	c #5CA6EC",
"t.	c #62B6DE",
"u.	c #4A9BB1",
"v.	c #1A6E3E",
"w.	c #245F10",
"x.	c #7ABE76",
"y.	c #92CEA2",
"z.	c #DBEFF9",
"A.	c #D2EEE2",
"B.	c #8AC7EC",
"C.	c #4FA8C6",
"D.	c #529EA6",
"E.	c #2762C3",
"F.	c #155B07",
"G.	c #3482DC",
"H.	c #5692DB",
"I.	c #6EBED2",
"J.	c #CCE9F8",
"K.	c #AEE6F2",
"L.	c #82C6D2",
"M.	c #2268D1",
"N.	c #659EE2",
"O.	c #4B7AC6",
"P.	c #125AC6",
"Q.	c #0E462E",
"R.	c #145129",
"S.	c #0A3713",
"T.	c #AED7FB",
"U.	c #084292",
"V.	c #104256",
"W.	c #2A5242",
"X.	c #AEDECA",
"Y.	c #96CAFA",
"Z.	c #2E563A",
"`.	c #1C65C5",
" +	c #77A9EC",
".+	c #86CABE",
"++	c #B2E59A",
"@+	c #B4EA8C",
"#+	c #68A7E4",
"$+	c #092A66",
"%+	c #2B535C",
"&+	c #9ADA86",
"*+	c #9ACEC2",
"=+	c #0A46BA",
"-+	c #07368B",
";+	c #2E5A5E",
">+	c #194E08",
",+	c #B0DAA0",
"'+	c #87CE7A",
")+	c #264A5A",
"!+	c #123A2E",
"~+	c #72BA52",
"{+	c #03245F",
"]+	c #1D3A65",
"^+	c #204078",
"/+	c #0E364A",
"(+	c #72CE22",
"_+	c #71CA28",
":+	c #6AC129",
"<+	c #9FD375",
"[+	c #9ED18A",
"}+	c #092E76",
"|+	c #234777",
"1+	c #163670",
"2+	c #07273E",
"3+	c #093A1F",
"4+	c #328E26",
"5+	c #0C2E67",
"6+	c #23478C",
"7+	c #0A2E53",
"8+	c #062E0E",
"9+	c #3A9A36",
"0+	c #082C24",
"a+	c #59AF23",
"b+	c #449C16",
"c+	c #264263",
"d+	c #031D22",
"e+	c #021B4A",
"f+	c #4AA216",
"g+	c #05244F",
"h+	c #021D57",
"i+	c #228212",
"j+	c #0E5A2E",
"k+	c #2452AA",
"l+	c #62B12F",
"m+	c #428296",
"n+	c #397E20",
"o+	c #02162A",
"p+	c #265E8A",
"q+	c #5A9E2E",
"r+	c #467E26",
"s+	c #020B1F",
"t+	c #020203",
"u+	c #427096",
"v+	c #5EA242",
"w+	c #629A42",
"x+	c #428852",
"y+	c #326224",
"z+	c #021B43",
"A+	c #02183A",
"B+	c #0A3632",
"                          . + @ # $ % & * = - * ;                           ",
"                      . > > , , ' , , ) ! ! ~ & { ] ^                       ",
"                  . / ( ' ' ' ' ' ' _ : < < [ % ~ - } | 1                   ",
"              2 2 , ( ( 3 > . . 2 4 ) 5 6 7 8 9 0 : a b c d                 ",
"            + e _ ( f g h i j k j l 8 m n o p l q q r s t u v v             ",
"          w x y z A B B C D E D p F s s s i G H q q I o J K K L             ",
"        M x B N O P P Q P R C R S E T U i i V l ! q W 7 n K X Y Z           ",
"      `  .S ......+.+.Q Q P @.C #.#.$.%.E &.*.7 < =.0 -.7 J X K ;.>.        ",
"      ,.*.S '.).!.~.~.+.{.Q C C #.O i &.i *.].^./.(.< ].a Y K t _.>.:.      ",
"    ` <.Y S [.'.!.}.}.!.[.+.A O G S #.|.1.2.3.3.3.4.{ 5.[ 7 n b 6.7.8.9.    ",
"    0.^.*.a.f ~.b.!.).}.[.{.+...@.C P r m c.d.d.3.3.4.(.e.& - ; f.>.g.h.    ",
"  /.i.^.*.D h '.'.!.!.!.b.[.).j.+.A O k.c.m ].l.< d.d.4.; m.m.} c n.o.h.h.  ",
"  4.i.^.p.G q.h '.~.}.[.!.!.}.b.j.+.r.s.-.t.o u.3.d.3.4.e.e.- ,.v.d w.h.g.  ",
"0./.i.i.].x.k y.h '.}.).!.}.}.z.A...B.s.C.k #.D.l.d.d.- E.m.- ` c d v F.n.  ",
"0.i.G.^.H.r G I.V B ).).!.b.}.z.J.K.L.s.1.|.I u.].d.3.m.{ * - ] } h.w.g.h.o.",
"M.0.i.G.N.8 k s.t.B [.!.b.z.z.J.K.B.t.C.D.-.c.=.U 7 4.(.O.4.e.P.^ Q.R.S.F.o.",
"M.M.i.d.q ].|.C.C.k.A {.'.z.z.K.T.y -.].6 3.3.< u.m.m.4.< = E.^ U.V.W.n.F.o.",
"} /./.H.=.G.c.I C.-.N Q ..X.T.Y.Y.9 s.m ].c.d.3.[ < < 5 5 & E.f.1 7.Z.w.o.o.",
"`.M./. +i.4.3.*.1.m .+X.++@+.+y  + +#+N.q q H.c.d.- < 5 5 - } ^ U.$+%+w.o.o.",
"`.M.3.N.4.4.^.].1.c.y y H O &+*+Y.#+N.H.H.=.=.c.~ 5 ! ! < e.] =+-+7.;+o.>+o.",
"| E.=.c.(.- 3.m.7 I 9 #+s.I.O ,+'+a G./.c.q : ~ 0 ~ ~ O.m.E.] 1 $+7.)+!+h.>+",
"} `.=.E.(.4.m.i.4.q 9 q =.N.e '+k o J J ~+x.V V e 0 5 { - } =+-+{+]+^+/+>+h.",
"P.} =.m.m.m.4.m./.q  +H.5 0 y V G D (+_+_+:+<+[+j r ~ m.} f.1 }+}+|+1+2+3+g.",
"| P.=.m.4.M.{ 4.e.H. +! d.q / ,+G _+%.%.k k &.i $.~+4+E.6.=+-+$+5+6+$+7+8+8+",
"f.P.~ < m.`.e.m.e.5  +=.d.0 ,+3 <+x %.(+&.&.%.J  .~+9+`.6.-+}+5+|+^+2+0+2+  ",
"  f.5 & m.} E.m.E.3.N.! < q ,+h f q.T _+_+:+:+a+b+b+4+} 1 -+$+^+c+$+7+d+e+  ",
"  6.m.5 e.| } (.} e.: : m.[ [+h h h $.:+:+K K f+b+L Z U.}+{+^+]+5+{+g+h+e+  ",
"    f.E.; ] ] { } } 5 0 { e.r ,+h h i :+a+f+b+L 4+i+j+U.{+}+1+$+{+$+{+{+    ",
"    | 6.f.f.| E.} | ; ~ O.; e.x.O q.[+x a+L L ;.Z R.7+7.}+5+5+$+1+g+e+e+    ",
"      6.f.f.] } k+f.] * ~ E.k+5.x.q.. l+l+l+f+;.j+8.7+7.5+1+1+]+$+{+e+      ",
"      6.6.6.f.} k+f.f.| * & k+] m+q.3 l+T ~+a+n+%+]+/+]+^+^+]+1+h+e+o+      ",
"        U.1 1 1 } f.6.6.f.* O.; p+j > j l+q+r+%+%+|+c+^+|+1+$+h+e+s+t+      ",
"          -+-+-+k+k+^ 1 1 6.; = u+v+w+r+r+r+c+c+c+^+^+1+5+$+h+e+s+t+t+t+t+  ",
"            $+}+7.6+k+6+-+-+1+^+u+x+y+>+>+S.7+$+$+$+$+h+h+h+o+s+t+t+t+t+t+t+",
"              {+$+5+$+c+$+{+{+{+$+|+Z.Z.>+z+h+h+e+h+h+e+e+A+s+t+t+t+t+t+t+t+",
"                o+g+{+5+5+{+{+{+$+8.!+g.S.g+{+h+h+h+h+A+s+t+t+t+t+t+t+t+t+t+",
"                  s+o+A+g+h+{+{+7+8.B+8+0+h+h+h+e+s+s+t+t+t+t+t+t+t+t+t+t+t+",
"                      t+s+A+A+o+z+g+d+o+o+A+A+A+s+t+t+t+t+t+t+t+t+t+t+t+t+  ",
"                            t+t+t+t+t+t+t+t+t+t+t+t+t+t+t+t+t+t+t+t+        "};
