/* XPM */
static char * stock_people_xpm[] = {
"24 24 309 2",
"  	c None",
". 	c #150F0C",
"+ 	c #1A1512",
"@ 	c #231813",
"# 	c #20150F",
"$ 	c #A7A294",
"% 	c #E3DEC9",
"& 	c #E7E4D7",
"* 	c #E7E2D3",
"= 	c #DED9C6",
"- 	c #5B544A",
"; 	c #726F64",
"> 	c #E7E1D1",
", 	c #F8F4E9",
"' 	c #FAF7EB",
") 	c #F8F3E1",
"! 	c #F5EED9",
"~ 	c #EAE4CD",
"{ 	c #19130F",
"] 	c #000000",
"^ 	c #040302",
"/ 	c #6A665D",
"( 	c #F1EBD8",
"_ 	c #F0E7D2",
": 	c #F1E8D5",
"< 	c #EFE6D0",
"[ 	c #EBDEBF",
"} 	c #F1E8CE",
"| 	c #B3AD98",
"1 	c #39271C",
"2 	c #111110",
"3 	c #4B4844",
"4 	c #0A0500",
"5 	c #242320",
"6 	c #6A5432",
"7 	c #B68C4B",
"8 	c #B68A46",
"9 	c #B68A45",
"0 	c #C09044",
"a 	c #D1C7AB",
"b 	c #33261F",
"c 	c #1D1D1D",
"d 	c #060606",
"e 	c #444444",
"f 	c #252525",
"g 	c #31281A",
"h 	c #DFA03E",
"i 	c #DF9F3A",
"j 	c #DE9E3A",
"k 	c #D79733",
"l 	c #D0902E",
"m 	c #DFD0A9",
"n 	c #2A1D16",
"o 	c #181817",
"p 	c #130A00",
"q 	c #4C3A29",
"r 	c #150B01",
"s 	c #0E0700",
"t 	c #1D1003",
"u 	c #261504",
"v 	c #361F05",
"w 	c #221B0F",
"x 	c #DE9A33",
"y 	c #DF9B34",
"z 	c #DE9B33",
"A 	c #D7942F",
"B 	c #CD8D2B",
"C 	c #DDC9A0",
"D 	c #171512",
"E 	c #1B0F01",
"F 	c #412405",
"G 	c #C5751C",
"H 	c #C5741D",
"I 	c #C1731D",
"J 	c #C2731C",
"K 	c #C8741A",
"L 	c #7C450C",
"M 	c #1A1207",
"N 	c #DA952C",
"O 	c #DC962E",
"P 	c #DC962D",
"Q 	c #D18E29",
"R 	c #AB7625",
"S 	c #D9CBA7",
"T 	c #161512",
"U 	c #2C1804",
"V 	c #5B3107",
"W 	c #D17A1D",
"X 	c #D17B1E",
"Y 	c #D37D1F",
"Z 	c #D07A1D",
"` 	c #CD761A",
" .	c #79430C",
"..	c #3A240B",
"+.	c #D28E28",
"@.	c #D99229",
"#.	c #D89229",
"$.	c #C78523",
"%.	c #8E601B",
"&.	c #D3C8A9",
"*.	c #14130F",
"=.	c #311A04",
"-.	c #A95F13",
";.	c #CC7519",
">.	c #CC761A",
",.	c #CC751A",
"'.	c #CB7519",
").	c #CA7218",
"!.	c #B66614",
"~.	c #3B250C",
"{.	c #B87B20",
"].	c #D08A24",
"^.	c #CB8622",
"/.	c #A26A1A",
"(.	c #44380F",
"_.	c #CFC7A4",
":.	c #201E18",
"<.	c #3A1F05",
"[.	c #9B580F",
"}.	c #BE6A15",
"|.	c #83490F",
"1.	c #261402",
"2.	c #2E1803",
"3.	c #8A4C0E",
"4.	c #B56413",
"5.	c #432E0C",
"6.	c #575D19",
"7.	c #846218",
"8.	c #7F5A16",
"9.	c #434512",
"0.	c #1D4D19",
"a.	c #969471",
"b.	c #3A422D",
"c.	c #0C130C",
"d.	c #472605",
"e.	c #934F0D",
"f.	c #321B03",
"g.	c #AC6011",
"h.	c #A55C10",
"i.	c #653607",
"j.	c #352E0C",
"k.	c #216421",
"l.	c #1C541C",
"m.	c #235023",
"n.	c #205E20",
"o.	c #235F22",
"p.	c #2F4328",
"q.	c #306D30",
"r.	c #49844A",
"s.	c #131F14",
"t.	c #0D1112",
"u.	c #292626",
"v.	c #593615",
"w.	c #341B04",
"x.	c #351D04",
"y.	c #341C04",
"z.	c #291704",
"A.	c #452F1A",
"B.	c #1C3227",
"C.	c #19401B",
"D.	c #256825",
"E.	c #74A975",
"F.	c #4C914E",
"G.	c #2D7B2E",
"H.	c #2E752E",
"I.	c #2F7D30",
"J.	c #318231",
"K.	c #438245",
"L.	c #111B12",
"M.	c #25282C",
"N.	c #91999F",
"O.	c #899DB0",
"P.	c #6F7A84",
"Q.	c #241E1A",
"R.	c #180E04",
"S.	c #1A120C",
"T.	c #222223",
"U.	c #646F7A",
"V.	c #455666",
"W.	c #3C4E5C",
"X.	c #0E1912",
"Y.	c #3D703D",
"Z.	c #369736",
"`.	c #318F31",
" +	c #2F8930",
".+	c #2B842B",
"++	c #298129",
"@+	c #2F812F",
"#+	c #132A14",
"$+	c #282C31",
"%+	c #A0ABB7",
"&+	c #738EAA",
"*+	c #7591AC",
"=+	c #506375",
"-+	c #899097",
";+	c #CCCCCC",
">+	c #C5C6C8",
",+	c #8D99A5",
"'+	c #6F7F91",
")+	c #556C83",
"!+	c #586E84",
"~+	c #45586B",
"{+	c #17201D",
"]+	c #437E44",
"^+	c #318E31",
"/+	c #2E892F",
"(+	c #2C822C",
"_+	c #287E28",
":+	c #257825",
"<+	c #0D2B0E",
"[+	c #121415",
"}+	c #90989E",
"|+	c #7C95AD",
"1+	c #6D89A5",
"2+	c #6F8BA6",
"3+	c #5C748B",
"4+	c #7C8A99",
"5+	c #F2F3F4",
"6+	c #E7EAED",
"7+	c #A7B8C7",
"8+	c #7E95AC",
"9+	c #66809B",
"0+	c #5D7995",
"a+	c #4E667D",
"b+	c #374756",
"c+	c #17321B",
"d+	c #2C882C",
"e+	c #2A822A",
"f+	c #297D29",
"g+	c #267927",
"h+	c #2A752C",
"i+	c #081B09",
"j+	c #131516",
"k+	c #96A1AD",
"l+	c #66829E",
"m+	c #67839E",
"n+	c #6884A0",
"o+	c #597088",
"p+	c #607285",
"q+	c #E6E8EB",
"r+	c #C9D3DB",
"s+	c #9AACBD",
"t+	c #7990A8",
"u+	c #BBC6D2",
"v+	c #6C859E",
"w+	c #526E8B",
"x+	c #4E6883",
"y+	c #0E1416",
"z+	c #247E24",
"A+	c #277D29",
"B+	c #28752A",
"C+	c #266C27",
"D+	c #010501",
"E+	c #040E05",
"F+	c #191D20",
"G+	c #8A9EB0",
"H+	c #5C7895",
"I+	c #5E7A97",
"J+	c #607C98",
"K+	c #617D99",
"L+	c #52677C",
"M+	c #CFD5DB",
"N+	c #B8C3D0",
"O+	c #68829C",
"P+	c #BBC7D1",
"Q+	c #D5DBE1",
"R+	c #CAD3DB",
"S+	c #4D6A87",
"T+	c #45617E",
"U+	c #0C1016",
"V+	c #1D2227",
"W+	c #8296AA",
"X+	c #56728F",
"Y+	c #587491",
"Z+	c #597692",
"`+	c #5A7692",
" @	c #405267",
".@	c #B8C3CC",
"+@	c #A9B8C6",
"@@	c #587490",
"#@	c #4E6A87",
"$@	c #4A6684",
"%@	c #44617E",
"&@	c #3F5A78",
"*@	c #0D131A",
"=@	c #171E27",
"-@	c #748A9E",
";@	c #4F6B88",
">@	c #536F8C",
",@	c #53708C",
"'@	c #3A4E63",
")@	c #6F8498",
"!@	c #8FA0B2",
"~@	c #4E6B88",
"{@	c #4C6886",
"]@	c #486482",
"^@	c #3C5774",
"/@	c #354F69",
"(@	c #040608",
"_@	c #182330",
":@	c #3E5773",
"<@	c #3D5671",
"[@	c #3E5672",
"}@	c #3F5874",
"|@	c #405A74",
"1@	c #3C5670",
"2@	c #3B526C",
"3@	c #3B536D",
"4@	c #293B51",
"                          . + @ #               ",
"                        $ % & * = -             ",
"                      ; > , ' ) ! ~ {           ",
"            ] ] ] ] ^ / ( _ : < [ } | 1         ",
"          2 ] 3 3 4 ] 5 6 7 8 8 9 0 a b         ",
"        c d 3 e f ] ] ] g h i j k l m n         ",
"        o p q r s t u v w x y z A B C D         ",
"        E F G H I J K L M N O P Q R S T         ",
"        U V W X Y Z `  ...+.@.#.$.%.&.*.        ",
"        =.-.;.>.,.'.).!.~.{.].^./.(._.:.        ",
"        <.[.}.|.1.2.3.4.5.6.7.8.9.0.a.b.c.      ",
"          d.e.f.g.h.d.i.j.k.l.m.n.o.p.q.r.s.    ",
"        t.u.v.w.x.y.z.A.B.C.D.E.F.G.H.I.J.K.L.  ",
"      M.N.O.P.Q.R.S.T.U.V.W.X.Y.Z.`. +.+++@+#+  ",
"    $+%+&+*+=+-+;+>+,+'+)+!+~+{+]+^+/+(+_+:+<+  ",
"  [+}+|+1+2+3+4+5+6+7+8+9+0+a+b+c+d+e+f+g+h+i+  ",
"  j+k+l+m+n+o+p+q+r+s+t+u+v+w+x+y+z+A+B+C+D+E+  ",
"  F+G+H+I+J+K+L+M+N+O+P+Q+R+S+T+U+] ] ] ]       ",
"  V+W+X+Y+Z+`+ @.@+@@@w+#@$@%@&@*@              ",
"  =@-@;@w+>@,@'@)@!@~@{@]@T+^@/@(@              ",
"  ] _@:@<@[@}@}@|@:@:@:@1@2@3@4@]               ",
"    ] ] ] ] ] ] ] ] ] ] ] ] ] ]                 ",
"                                                ",
"                                                "};
