/* XPM */
static char * stock_new_meeting_xpm[] = {
"24 24 335 2",
"  	c None",
". 	c #080706",
"+ 	c #010101",
"@ 	c #020101",
"# 	c #000000",
"$ 	c #040403",
"% 	c #030202",
"& 	c #0E0D0B",
"* 	c #242321",
"= 	c #11100E",
"- 	c #857F78",
"; 	c #544A3F",
"> 	c #494034",
", 	c #7F705E",
"' 	c #A4927A",
") 	c #0E0C0A",
"! 	c #030302",
"~ 	c #4B4237",
"{ 	c #0A0908",
"] 	c #040303",
"^ 	c #141211",
"/ 	c #9A9691",
"( 	c #D3D2D0",
"_ 	c #C4C2BF",
": 	c #766E65",
"< 	c #483F36",
"[ 	c #938A7C",
"} 	c #EBE7E0",
"| 	c #E8D9C5",
"1 	c #A99984",
"2 	c #070605",
"3 	c #050403",
"4 	c #0D0B0A",
"5 	c #585045",
"6 	c #BAB5AE",
"7 	c #E2DBD2",
"8 	c #E7E0D8",
"9 	c #EDE5DB",
"0 	c #E8DBCB",
"a 	c #DACEBE",
"b 	c #D7CDC1",
"c 	c #EBE9E6",
"d 	c #EEEBE9",
"e 	c #B4AEA7",
"f 	c #5B554D",
"g 	c #8B7E6D",
"h 	c #E9E1D6",
"i 	c #F5F0EA",
"j 	c #E8DDCD",
"k 	c #DAC8B2",
"l 	c #E5D6C4",
"m 	c #BFB2A2",
"n 	c #65594A",
"o 	c #BBB2A6",
"p 	c #EBE4DC",
"q 	c #E8E1DA",
"r 	c #E8E4E0",
"s 	c #D4C1AB",
"t 	c #E9DFD2",
"u 	c #F0E5D9",
"v 	c #F3E8D8",
"w 	c #F8F1E9",
"x 	c #F2EBE1",
"y 	c #A1978D",
"z 	c #6E675E",
"A 	c #EAE3DA",
"B 	c #F6F2ED",
"C 	c #DACAB6",
"D 	c #C8B295",
"E 	c #B39D80",
"F 	c #C4AD8F",
"G 	c #DDCEBB",
"H 	c #D0C3B4",
"I 	c #C4B39C",
"J 	c #887964",
"K 	c #CCC3B8",
"L 	c #E8E2DA",
"M 	c #E4DBCE",
"N 	c #E6E1D9",
"O 	c #D9D1C7",
"P 	c #D4BCA0",
"Q 	c #E3CFB3",
"R 	c #EDD9BF",
"S 	c #E9D8C2",
"T 	c #F0E1D1",
"U 	c #F5E9DA",
"V 	c #6A655E",
"W 	c #EFEBE4",
"X 	c #F0E7DC",
"Y 	c #D3C3AE",
"Z 	c #BCA890",
"` 	c #BDA78A",
" .	c #A49075",
"..	c #937F67",
"+.	c #B39B7E",
"@.	c #BCA586",
"#.	c #C1A98A",
"$.	c #D7C5AE",
"%.	c #B9A58B",
"&.	c #A3917A",
"*.	c #C3B19A",
"=.	c #E2D7CA",
"-.	c #C3B49F",
";.	c #B19F87",
">.	c #D2B593",
",.	c #E1C6A4",
"'.	c #EAD4B7",
").	c #EFDDC8",
"!.	c #F5E6D5",
"~.	c #F6EBDD",
"{.	c #817A71",
"].	c #D5CDC4",
"^.	c #E6D6C2",
"/.	c #D0B99C",
"(.	c #B19A7E",
"_.	c #615646",
":.	c #2A241F",
"<.	c #3D352B",
"[.	c #786854",
"}.	c #9A866C",
"|.	c #AA9478",
"1.	c #B49D7E",
"2.	c #BCA588",
"3.	c #B29B7D",
"4.	c #A79277",
"5.	c #C0AB8F",
"6.	c #B5A287",
"7.	c #A59175",
"8.	c #C6AC8B",
"9.	c #D3BB9C",
"0.	c #E6D1B7",
"a.	c #EEDBC7",
"b.	c #F2E3D3",
"c.	c #F3E5D4",
"d.	c #B0A394",
"e.	c #847C71",
"f.	c #EDE6DD",
"g.	c #C5B39D",
"h.	c #B59F82",
"i.	c #453D33",
"j.	c #8D857B",
"k.	c #383128",
"l.	c #564939",
"m.	c #958269",
"n.	c #A49177",
"o.	c #AC967C",
"p.	c #B59F83",
"q.	c #B19A7C",
"r.	c #B69F81",
"s.	c #B09C82",
"t.	c #A5927C",
"u.	c #C8AD8D",
"v.	c #D4BB9E",
"w.	c #DFCAAF",
"x.	c #EDDBC7",
"y.	c #F4E5D4",
"z.	c #F5E7D6",
"A.	c #D4C2AD",
"B.	c #65605B",
"C.	c #DAD7D3",
"D.	c #BFB4A8",
"E.	c #B19D83",
"F.	c #574E43",
"G.	c #8D8375",
"H.	c #96928C",
"I.	c #41392E",
"J.	c #594C3D",
"K.	c #857561",
"L.	c #968773",
"M.	c #9A8975",
"N.	c #A9957D",
"O.	c #B0987B",
"P.	c #B19C83",
"Q.	c #AA957B",
"R.	c #9B876F",
"S.	c #B09A7F",
"T.	c #C3AD93",
"U.	c #CDBAA4",
"V.	c #DECCB7",
"W.	c #EBDCCA",
"X.	c #F5E8D8",
"Y.	c #DFCEB9",
"Z.	c #61594F",
"`.	c #D5CEC5",
" +	c #C2B39F",
".+	c #5E5449",
"++	c #726657",
"@+	c #9F9381",
"#+	c #BBB6AE",
"$+	c #D1CBC1",
"%+	c #44392B",
"&+	c #554739",
"*+	c #7C6D5A",
"=+	c #867765",
"-+	c #94816A",
";+	c #AA9672",
">+	c #A79465",
",+	c #BAA572",
"'+	c #9F8C65",
")+	c #605344",
"!+	c #8B7B68",
"~+	c #AD9B87",
"{+	c #B0A08D",
"]+	c #3F3A33",
"^+	c #938A7E",
"/+	c #E7D5BF",
"(+	c #998873",
"_+	c #695E50",
":+	c #5A5145",
"<+	c #776959",
"[+	c #A7947D",
"}+	c #B0A89E",
"|+	c #C2B5A5",
"1+	c #EEE6DB",
"2+	c #B3ACA3",
"3+	c #4C4134",
"4+	c #594E40",
"5+	c #877762",
"6+	c #8C7B5F",
"7+	c #93835B",
"8+	c #5E533B",
"9+	c #352E26",
"0+	c #645749",
"a+	c #3A3A3A",
"b+	c #EFEAE3",
"c+	c #F2F1F0",
"d+	c #665C4F",
"e+	c #C0AE97",
"f+	c #C6B49C",
"g+	c #C9B49B",
"h+	c #CEBCA6",
"i+	c #CEB99E",
"j+	c #DBCEBC",
"k+	c #423B31",
"l+	c #B6A793",
"m+	c #9F9B95",
"n+	c #7D7976",
"o+	c #514436",
"p+	c #8A7959",
"q+	c #8C7C55",
"r+	c #564C38",
"s+	c #040302",
"t+	c #F7F1E9",
"u+	c #DCD8D2",
"v+	c #E9E5E0",
"w+	c #B7AC9D",
"x+	c #84786A",
"y+	c #857460",
"z+	c #AB967C",
"A+	c #B3997B",
"B+	c #BFA584",
"C+	c #DEC9AD",
"D+	c #CFB89A",
"E+	c #3B342B",
"F+	c #90877C",
"G+	c #8C8071",
"H+	c #50412E",
"I+	c #4E4333",
"J+	c #453C2E",
"K+	c #090706",
"L+	c #C9C3BA",
"M+	c #C2B4A4",
"N+	c #827566",
"O+	c #F4EEE6",
"P+	c #F1EFEB",
"Q+	c #766D61",
"R+	c #796955",
"S+	c #9C8973",
"T+	c #3A3128",
"U+	c #AC9476",
"V+	c #AE9B85",
"W+	c #877967",
"X+	c #51483D",
"Y+	c #7B6A4F",
"Z+	c #897550",
"`+	c #2E261C",
" @	c #372D23",
".@	c #46423E",
"+@	c #B4A086",
"@@	c #BAB0A3",
"#@	c #F3EEE8",
"$@	c #A9A59F",
"%@	c #746858",
"&@	c #7B6953",
"*@	c #9A866D",
"=@	c #4B4033",
"-@	c #796A58",
";@	c #61584B",
">@	c #554B3F",
",@	c #706140",
"'@	c #4B4133",
")@	c #312B22",
"!@	c #8A8176",
"~@	c #95846D",
"{@	c #736758",
"]@	c #ECE5DE",
"^@	c #E8E1D8",
"/@	c #5E4D39",
"(@	c #7F6D57",
"_@	c #675B4C",
":@	c #71644C",
"<@	c #63573B",
"[@	c #94835E",
"}@	c #0D0B09",
"|@	c #2F2A22",
"1@	c #261F18",
"2@	c #080705",
"3@	c #14110E",
"4@	c #8F7E67",
"5@	c #8A8073",
"6@	c #EEE9E1",
"7@	c #938779",
"8@	c #423B33",
"9@	c #716441",
"0@	c #958457",
"a@	c #5D5238",
"b@	c #0F0E0C",
"c@	c #302A21",
"d@	c #41382D",
"e@	c #93805F",
"f@	c #7D6E58",
"g@	c #E7DFD5",
"h@	c #49433A",
"i@	c #706141",
"j@	c #1E1913",
"k@	c #050503",
"l@	c #211C14",
"m@	c #010100",
"n@	c #1D1A12",
"o@	c #8D7C5A",
"p@	c #9E8D6E",
"q@	c #0C0A08",
"r@	c #0A0806",
"s@	c #16130F",
"t@	c #0E0C08",
"                                                ",
"                  . + @ # $                   # ",
"# %         & * = - ; > , ' )             ! #   ",
"  ~ { ] $ ^ / ( _ : < [ } | 1 2       3 4 5 6 7 ",
"8 9 0 a b c d e f g h i j k l m # ] ] n o p q r ",
"s t u v w x y z A B 9 C D E F G H I J K L M N O ",
"P Q R S T U V W X Y Z `  ...+.@.#.$.%.&.*.=.-.;.",
">.,.'.).!.~.{.].^./.(._.:.<.[.}.|.1.2.3.4.5.6.7.",
"8.9.0.a.b.c.d.e.f.g.h.i.j.k.l.[.m.n.o.p.q.r.s.t.",
"u.v.w.x.y.z.A.B.C.D.E.F.G.H.I.J.K.L.M.N.O.P.Q.R.",
"S.T.U.V.W.X.Y.Z.`. +.+++@+#+$+%+&+*+=+-+;+>+,+'+",
")+!+~+{+]+^+/+(+_+:+<+[+}+|+1+2+3+4+5+6+7+8+# 9+",
"# + 0+a+b+c+d+e+f+g+h+i+j+k+l+m+n+o+p+q+r+s+    ",
"    # t+u+v+w+x+y+z+A+B+C+D+E+F+G+H+I+J+K+      ",
"    # L+M+N+O+P+Q+R+S+T+U+V+W+X+Y+Z+`+ @        ",
"      # .@+@@@#@$@%@&@*@=@-@;@>@,@'@)@          ",
"        # !@~@{@]@^@/@(@_@:@<@[@}@|@1@          ",
"          2@3@4@5@6@7@8@9@0@a@b@c@              ",
"            ! d@e@f@g@h@i@j@k@l@                ",
"              m@n@o@p@q@r@s@                    ",
"                # % s+t@                        ",
"                                                ",
"                                                ",
"                                                "};
