/* XPM */
static char * history_xpm[] = {
"22 22 181 2",
"  	c None",
". 	c #625342",
"+ 	c #635444",
"@ 	c #615141",
"# 	c #584838",
"$ 	c #4F3939",
"% 	c #D1B692",
"& 	c #EBD7B7",
"* 	c #A68F72",
"= 	c #000000",
"- 	c #F7E1BA",
"; 	c #F7E9D1",
"> 	c #F6E9D6",
", 	c #E1D1BD",
"' 	c #978367",
") 	c #594B37",
"! 	c #F4E3C9",
"~ 	c #F7EEE2",
"{ 	c #F8F3ED",
"] 	c #FEF6ED",
"^ 	c #FFF5E0",
"/ 	c #FFEBCF",
"( 	c #4F473B",
"_ 	c #4F4536",
": 	c #52453A",
"< 	c #F2E9DB",
"[ 	c #FCF7F2",
"} 	c #FEFBF9",
"| 	c #FFFDFB",
"1 	c #FFFEFC",
"2 	c #FFFCFA",
"3 	c #FFF3E5",
"4 	c #F5DFC0",
"5 	c #7E695A",
"6 	c #4D3E3D",
"7 	c #594946",
"8 	c #A78568",
"9 	c #FCF7EF",
"0 	c #FDFAF6",
"a 	c #FEFCF9",
"b 	c #FEFBF8",
"c 	c #FDF7F3",
"d 	c #FFFBF5",
"e 	c #EDE4DB",
"f 	c #76655E",
"g 	c #473935",
"h 	c #463938",
"i 	c #514240",
"j 	c #100D0D",
"k 	c #E5CEA7",
"l 	c #F8EEE0",
"m 	c #FFF8F0",
"n 	c #FEF9F3",
"o 	c #FEF9F4",
"p 	c #FEF9F6",
"q 	c #FBF4EE",
"r 	c #FFFBF3",
"s 	c #EDE4DD",
"t 	c #6A5A58",
"u 	c #473737",
"v 	c #7C6A5F",
"w 	c #C3AE91",
"x 	c #221F1A",
"y 	c #FAF0E2",
"z 	c #FFF9EF",
"A 	c #FEF8EF",
"B 	c #FDF7EE",
"C 	c #FCF5EF",
"D 	c #F9F1E7",
"E 	c #FFF9EC",
"F 	c #E9DFD4",
"G 	c #524744",
"H 	c #2F2424",
"I 	c #64574C",
"J 	c #B0A082",
"K 	c #2D2921",
"L 	c #FBF1E3",
"M 	c #FFF6E9",
"N 	c #FEF5E9",
"O 	c #FCF4E8",
"P 	c #F9EFE2",
"Q 	c #F7EDDD",
"R 	c #FFF8E6",
"S 	c #E1D7C9",
"T 	c #151513",
"U 	c #443428",
"V 	c #F5E5CE",
"W 	c #FCF0DC",
"X 	c #FEF3DF",
"Y 	c #FFF4E0",
"Z 	c #FDF2DE",
"` 	c #F9ECD7",
" .	c #F6E9D3",
"..	c #FEEED7",
"+.	c #E8DCCE",
"@.	c #25221F",
"#.	c #392A20",
"$.	c #FFF9DD",
"%.	c #FBEDD3",
"&.	c #FEF1D6",
"*.	c #FDF0D5",
"=.	c #FAEBD1",
"-.	c #F7E6CB",
";.	c #F1E1C7",
">.	c #F6E4CA",
",.	c #D7BD99",
"'.	c #201D1A",
").	c #4F3F31",
"!.	c #F1E2CA",
"~.	c #FFEECD",
"{.	c #F4E3C2",
"].	c #F9E9CA",
"^.	c #F7E7C8",
"/.	c #F3E2C3",
"(.	c #F3DFC1",
"_.	c #EBD9BC",
":.	c #F0DDBF",
"<.	c #413327",
"[.	c #3C2E24",
"}.	c #3B2E23",
"|.	c #D6BF9A",
"1.	c #EBD5AD",
"2.	c #EED7B4",
"3.	c #EED9B7",
"4.	c #EBD8B7",
"5.	c #EBD8BA",
"6.	c #E9D6B8",
"7.	c #EED6B3",
"8.	c #C8C3C2",
"9.	c #CEC8C0",
"0.	c #C1B29D",
"a.	c #806553",
"b.	c #A48B70",
"c.	c #CFB58F",
"d.	c #E1C7A2",
"e.	c #E4CBA6",
"f.	c #E3CAA7",
"g.	c #E7CEAB",
"h.	c #ECD2AE",
"i.	c #FFF8E9",
"j.	c #FFFCFB",
"k.	c #F3E1CC",
"l.	c #B7A495",
"m.	c #9F8467",
"n.	c #C0A685",
"o.	c #D5BA95",
"p.	c #D9BD98",
"q.	c #E1C6A0",
"r.	c #181614",
"s.	c #B39876",
"t.	c #EBD7B9",
"u.	c #FBE9CD",
"v.	c #CDB395",
"w.	c #B49B7B",
"x.	c #CCB390",
"y.	c #120F0C",
"z.	c #060605",
"A.	c #CDB18C",
"B.	c #F8E3C3",
"C.	c #FDFAF7",
"D.	c #EBD2B0",
"E.	c #5A4A46",
"F.	c #221B13",
"G.	c #4A3E2F",
"H.	c #FFF5DB",
"I.	c #E2C7A3",
"J.	c #403334",
"K.	c #4C3C3D",
"L.	c #483D34",
"M.	c #574935",
"N.	c #453737",
"O.	c #584944",
"P.	c #8D7A6C",
"Q.	c #1C1816",
"R.	c #544443",
"S.	c #77665C",
"T.	c #EDD6AE",
"U.	c #433D31",
"V.	c #0E0C0B",
"W.	c #0F0C0C",
"X.	c #161311",
"                                            ",
"                  . + @ #                   ",
"                $ % & % * = =               ",
"                $ - ; > , % ' ) =           ",
"                $ ! ~ { ] ^ / % ( _ :       ",
"                $ < [ } | 1 2 3 4 % 5 6 7   ",
"              $ 8 < 9 0 a b c d e f g h i j ",
"              $ k l m n o p q r s t u v w x ",
"              $ < y z A B C D E F G H I J K ",
"              $ < L M N O P Q R S T   = =   ",
"            U 8 V W X Y Z `  ...+.@.        ",
"            #.k $.%.&.*.=.-.;.>.,.'.        ",
"            ).!.~.{.].^./.(._.:.=           ",
"    <.<.[.  }.|.1.k 2.3.4.5.6.7.=           ",
"  <.8.9.0.a.a.b.b.c.d.e.f.g.h.,.=           ",
"  <.i.j.i.k.l.a.a.m.b.n.o.p.q.,.r.          ",
"  <.s.t.i.j.i.u.v.a.a.b.b.w.x.=             ",
"    y.z.A.t.B.i.C.i.D.a.E.b.b.=             ",
"        F.G.A.t.H.i.I.,.J.K.L.=             ",
"            = M.A.t.I.N.O.P.Q.=             ",
"                = = A.R.S.T.U.              ",
"                    V.W.X.K                 "};
