/* XPM */
static char * t_and_b2_xpm[] = {
"67 54 251 2",
"  	c None",
". 	c #B7B5B5",
"+ 	c #9A9794",
"@ 	c #332C30",
"# 	c #020202",
"$ 	c #20201F",
"% 	c #948F92",
"& 	c #DFDEDF",
"* 	c #B3AEAF",
"= 	c #1C1A16",
"- 	c #383737",
"; 	c #9F9FA0",
"> 	c #E6E6E6",
", 	c #E3E2E2",
"' 	c #686767",
") 	c #060605",
"! 	c #494949",
"~ 	c #0C0C0C",
"{ 	c #C4C2C1",
"] 	c #8B7F7E",
"^ 	c #AAA09F",
"/ 	c #161614",
"( 	c #636362",
"_ 	c #414141",
": 	c #DCDADA",
"< 	c #A6868C",
"[ 	c #744E57",
"} 	c #CCB4B8",
"| 	c #D7C9C1",
"1 	c #9D757B",
"2 	c #763B46",
"3 	c #866E71",
"4 	c #C4BCAA",
"5 	c #8E5961",
"6 	c #C0B3B0",
"7 	c #8A8672",
"8 	c #B2727E",
"9 	c #944149",
"0 	c #5D3E46",
"a 	c #A79899",
"b 	c #D8D5D6",
"c 	c #D2CECE",
"d 	c #A0626A",
"e 	c #745560",
"f 	c #767574",
"g 	c #C2A3A7",
"h 	c #A83A44",
"i 	c #683C47",
"j 	c #523239",
"k 	c #79616A",
"l 	c #9E7A82",
"m 	c #7A6968",
"n 	c #988791",
"o 	c #BA868E",
"p 	c #74333D",
"q 	c #333236",
"r 	c #786E6C",
"s 	c #E8DCD6",
"t 	c #AB555D",
"u 	c #B23942",
"v 	c #68363F",
"w 	c #583843",
"x 	c #7C3841",
"y 	c #66303B",
"z 	c #512C34",
"A 	c #582A33",
"B 	c #58323A",
"C 	c #CCC9C8",
"D 	c #4C3745",
"E 	c #595758",
"F 	c #8E8986",
"G 	c #BABCBE",
"H 	c #9A3943",
"I 	c #924A52",
"J 	c #572E37",
"K 	c #B28C96",
"L 	c #A7444C",
"M 	c #7C2E39",
"N 	c #827674",
"O 	c #C4BCA4",
"P 	c #121212",
"Q 	c #F7F6F6",
"R 	c #DCC0C4",
"S 	c #F2E4E4",
"T 	c #BA7276",
"U 	c #682A3B",
"V 	c #8A3640",
"W 	c #9C303A",
"X 	c #A72730",
"Y 	c #842A36",
"Z 	c #FAFAFA",
"` 	c #282014",
" .	c #292827",
"..	c #96565E",
"+.	c #BA868A",
"@.	c #EEEDEC",
"#.	c #FEFEFE",
"$.	c #922E38",
"%.	c #9C2832",
"&.	c #5E2D37",
"*.	c #D1D2D2",
"=.	c #9E8E36",
"-.	c #CAA22E",
";.	c #DAB20A",
">.	c #F3C207",
",.	c #A87103",
"'.	c #33291A",
").	c #BF999A",
"!.	c #85313A",
"~.	c #6E2F3B",
"{.	c #6A5622",
"].	c #D8AA1C",
"^.	c #B69E02",
"/.	c #EDC71B",
"(.	c #E8BA28",
"_.	c #E2C705",
":.	c #F0C60A",
"<.	c #F3BC03",
"[.	c #CB8C03",
"}.	c #6A4E1A",
"|.	c #D2868E",
"1.	c #C6C6C8",
"2.	c #D2A20E",
"3.	c #CEAE02",
"4.	c #EECA26",
"5.	c #E8AA02",
"6.	c #BF8204",
"7.	c #221A02",
"8.	c #8AA2B6",
"9.	c #6E8AA6",
"0.	c #C2BDBF",
"a.	c #86929F",
"b.	c #CA8E92",
"c.	c #ABA8A8",
"d.	c #AE7E02",
"e.	c #D99A06",
"f.	c #C29602",
"g.	c #D2B206",
"h.	c #EEB102",
"i.	c #5A414F",
"j.	c #383D58",
"k.	c #554A66",
"l.	c #5C6682",
"m.	c #B62C38",
"n.	c #A69672",
"o.	c #BD8B02",
"p.	c #B69A02",
"q.	c #EABD06",
"r.	c #B47C02",
"s.	c #B28626",
"t.	c #4A3236",
"u.	c #36466E",
"v.	c #F3F2F2",
"w.	c #AA2E3C",
"x.	c #833741",
"y.	c #3A424A",
"z.	c #5E5E5F",
"A.	c #AE9A6E",
"B.	c #D39405",
"C.	c #DFA004",
"D.	c #9A8256",
"E.	c #566276",
"F.	c #84656B",
"G.	c #B6A282",
"H.	c #9E823C",
"I.	c #8C2634",
"J.	c #8D7178",
"K.	c #F2D2D6",
"L.	c #867776",
"M.	c #B6A9AC",
"N.	c #BB2028",
"O.	c #822630",
"P.	c #492D33",
"Q.	c #9797A9",
"R.	c #827F96",
"S.	c #9AA8B0",
"T.	c #463E52",
"U.	c #69454F",
"V.	c #72768E",
"W.	c #6B5F6D",
"X.	c #6A5662",
"Y.	c #3E3652",
"Z.	c #68748A",
"`.	c #8E6768",
" +	c #695A4B",
".+	c #62584F",
"++	c #695F50",
"@+	c #726251",
"#+	c #59495A",
"$+	c #625646",
"%+	c #5C5343",
"&+	c #554A3A",
"*+	c #4D4030",
"=+	c #464033",
"-+	c #393222",
";+	c #382E1F",
">+	c #736656",
",+	c #675745",
"'+	c #5D4E3C",
")+	c #4D473B",
"!+	c #403730",
"~+	c #49392D",
"{+	c #6E5F4E",
"]+	c #403121",
"^+	c #423625",
"/+	c #635241",
"(+	c #9E918F",
"_+	c #473725",
":+	c #7C715F",
"<+	c #302002",
"[+	c #4F373E",
"}+	c #CAB66E",
"|+	c #EAD64E",
"1+	c #E6C64E",
"2+	c #544635",
"3+	c #402D31",
"4+	c #E6E2C6",
"5+	c #E6A602",
"6+	c #F2EAD2",
"7+	c #524131",
"8+	c #EADEB2",
"9+	c #5A4A39",
"0+	c #EED27E",
"a+	c #F3B603",
"b+	c #825802",
"c+	c #5E4616",
"d+	c #ECC23A",
"e+	c #766146",
"f+	c #71574C",
"g+	c #452E02",
"h+	c #EED276",
"i+	c #624E46",
"j+	c #4E5272",
"k+	c #3C5682",
"l+	c #E2D2AE",
"m+	c #E2AE16",
"n+	c #3A5E8E",
"o+	c #E6CA7E",
"p+	c #5E3E02",
"q+	c #8B7A6D",
"r+	c #464A5E",
"s+	c #CA9A36",
"t+	c #5A3A02",
"u+	c #9E6602",
"v+	c #8A621E",
"w+	c #AE760A",
"x+	c #764E02",
"y+	c #6E6657",
"z+	c #9E824E",
"A+	c #684402",
"B+	c #9A8A5A",
"                                                                                                                                      ",
"                                    . + @ # # # $ % &                                                                                 ",
"                                & * = # # # # # # # - ; >                                   , &                                       ",
"                            >   ' ) - ! ~ # # # # # # # ;                               > { ] ^                                       ",
"                              * / / ! ( / # # # # # # # _ :                           & < [ % ,                     } | >             ",
"                              $ # # ) = ) # # # # # # # # ;                         : 1 2 3 &                       4 5 6             ",
"                            7 ) # # # # # # # # # # # # # +                       : 8 9 0 a > , b c c :             : d e {           ",
"                            f # # # $ # # # # # # ~ ~ ) # ;                     > g h i j k ^ l d [ [ m n {         , o p m :         ",
"                            f # # ~ @ ; ; ( ~ # ~ q r _ # ;                     s t u v w 2 v x p y z A B w 3 C     , < p D .         ",
"                            f # # # E > > : r # ~ F , G ~ ;                     b H u 2 9 I 9 h h H B z A z J k c b K L M j N         ",
"                            f # # @ & F $ ( O P q Q ! ( / +                     : L 9 t R S t 8 g T 9 J U U J v V W X Y A z k         ",
"                            f # # _ Z ) ) ( + ` _ % _  .~ ;                     , 1 ..} Z R +.@.#., L p U U U x $.%.Y &.z A n         ",
"                          : _ # #  .*.! ) =.-.;.>.,.'.% ~ ;                     > K K #.Q ).s #.#.Q T h !.p p ~.p U B z z w C         ",
"                          C # # # ) {.].^./.(._.:.<.[.}.# ;                     , < b @.S ).Q #.#.Z |.u M ~.y B B J J z D % ,         ",
"                          1.# # # ` 2.3._./.4.:.:.<.5.6.7.+                     : 1 8.9.0.a.{ Q #.Z b.u !.~.J j A A z z n :           ",
"                          c.# ) ~ 7.d.e.f.g._./.:.>.h.6.'.;                     . i.j.k.e l.l.*.#.Q T m.!.y z z A A 0 ^ :             ",
"                          q $ E - $ n.e.e.6.o.p.:.q.r.s.) +                   C ..!.t.D w j.u.C #.v.t w.x.y J A A [ *                 ",
"                        F ) y.z.) z.c C A.6.[.B.C.6.D.0.) ;                 > d w.W M x.2 j.E., #.0.h V M &.t.z A F.:                 ",
"                      & - # P P # { v.v.1.G.s.,.,.H.. G ) +           & : > & $.X I.X %.p w J.K.} 5 H !.p A z A z 3 >                 ",
"                      ; # # # # z.@.Q Z v.b { G * . *.v.q ~ .         , a.% b x.w.$.I.$.y z x.H $.%.%.M y z j z z L.>                 ",
"                    * / # # # ~ ; Z Z Q Z Q > 1.G 1.@.Z ; ~ E *.  > & , b M.. l !.p ~.~.U &.W m.N.N.N.O.U z P.A &.M.                  ",
"                    E # # # # q Z Q Z Q Q Q Z Z @.Q Q Z Q f # =   & a.; , 1.n b < v y !.$.W w.X %.Y U J J z z j N                     ",
"                : ( # # # # # ( Q Q Q Q Q Z Z Q Z Z Z Q Z *.) $ F & b Q.R.c.Q.#.& 0.3 v x.!.!.!.y J B j P.z z k c                     ",
"                c.# # # # # # 1.> > @.Q Q Q Z Q @.@.Q Q Z C @ S.9.1.#.& R.T.+ #.M.).b a U.B v J J B z B B B 3 b                       ",
"              1.$ # # # ~ # ( *.1.C *., Q Q Q Q v.v.Z Q & G E./ y.% S.R.V.n W.e %.$.J.> C F.J U J J J J z X.:                         ",
"              ( # # # $ ~ ~ * C & @.Z Q Z Q Z Q Q v.Q Q Z @.; $ ~ Y.Z.. *., { w O.U W.Z #.a v ~.v ~.M M y k ,                         ",
"            G # # # / $ # ! : @.Z Z Q Z Q Z Q Z Z Z Z Z Q Z Q r / ~ N #.#.#.^ $.O.A U.^ M.`.I.%.X $.I.X p i..                         ",
"            . # # # $ - = G @.Z Q Z v.Z Q Z Q Q Z v.Z Z Q Z Z & # $  .b #.#.J.X I.A J B j y Y I.!.x p M p w ^                         ",
"            $ # # q # ) y.& Z Q Z Q Z Q Z Q Z Z v.C 0.{ 1.C c *.% _ ! C & , M.1 [ z J z P.$.N.N.U A J y y J F.,                       ",
"          : $ # # P # # ' Z Q Z Q Z Z Q Q Q Q Q > f  +.+++++++++( ++z.++@+m L.] N k f N ] < ).b.g `.0 0 A J #+&                       ",
"          f # # # # # # ' v.Z Q Q Q Q Z Z Z Q Z & r  +$+%+$+$+%+%+&+&+*+=+=+=+-+-+;+'. .'.;+-+- =+! %+m A &.w :                       ",
"          f # # # / # # ' Z Z Z Q Z Q Q Q Z Q Q c >+++,+$+$+$+%+%+'+)+)+*+!+~+!+-+-+;+;+ .'. .` 7.7.= .+A A w &                       ",
"        b q # # # $ # # ' Q Q Z Q Q Z Z Q Q Z Z { @+{+ + + +,+$+$+%+'+*+*+*+=+]+!+-+;+'.'.'.'. .` 7. .+ A z k &                       ",
"        *.$ # # # # ) # ' Z Z Q Z Q Q Q Z Q Q Z . @+{+ + + +,+$+$+%+'+)+*+~+!+^+]+-+-+;+;+'.'.` ` ` )+/+z t.(+>                       ",
"          f # # # ~  .# l.Q Q Q Z Q Z Z Q Z Z Q c.@+{+ + +++$+$+ +%+%+&+*+*+*+^+_+]+]+;+'.;+'. .` ` :+#+]+P.3 &                       ",
"          f ~ $ ~ # # P Z.Z Q Z Q Z Q Q Q Q Z Z a  + +$+$+++,+.+{+$+/+'+)+*+*+~+~+^+]+-+'.;+'.<+7.'.] [+P.t.w b                       ",
"        > }+-+P # # # ) H.|+1+@.Z Q Z Q Z Z Q Q n. +%+%+ +@+ + +++,+%+'+&+2+*+*+=+_+^+]+;+'.'.` ` _ N P.3+@ t.(+                      ",
"        4+_.3.'.# # # ) H._.5+6+Q Z Q Q Q Z Z @.7  +$+$+ +@+ + +{+ +$+/+'+'+2+7+*+_+_+]+;+'.'. .`  +z z z P.P.m                       ",
"        8+q.<.6./ ) ) <+r.h.].*.Q Q Z Q Z Q Q > ] {+,+$+++@+{+ +{+ +,+%+'+'+9+2+*+*+_+^+]+;+'.<+'.F t.t.P.t.D 0 ] 4 *.: > > > >       ",
"        0+a+a+5+r.b+b+,.[.5+C.O , Z Q Z Q Z Z , N {+ +,+++{+{+ + + +,+/+'+'+9+7+*+~+_+^+]+;+;+'.)+[ z J A j )+[+[+j w k n M.*.&       ",
"      s (.<.<.h.C.[.[.B.e.C.f.G , Z Q Z Z Z Q : :+{+ + + +@+ +{+{+ +,+/+/+'+'+c+*+_+_+]+]+;+'.'.:+e i J #+#+3 a 1.* ] e U.i N b   >   ",
"    > d+<.<.h.<.a+5.5+5+h.e.r.O @.Q Q Q Q Z Z b m e+ + + +{+ + + +f+,+$+/+'+9+7+7+~+_+g+]+;+'.;+L.w w j #+i.3 ^ > @.S , 6 k i J.*.>   ",
"  h+/.<.<.a+<.>.<.<.h.a+h.C.r.=+*.Z Q Z Z Q Q | >+{+ + +{+f+ + +,+$+/+%+%+'+2+c+*+_+_+^+]+g+;+2+(+y &.A A A 0 ] 0.`.| @.> M.w 0 X.L.  ",
"  >.>.h.5.>.<.>.:.>.<.>.<.5+r.7.q @.Q v.Z Z Q { @+{+ +,+{+ +{.,+,+$+}.'+'+'+2+*+~+]+]+]+]+'.;+:+e &.U U &.B k.#+I x.K M.l U.D !+#+.+  ",
"  8+(.q.:.<.a+>.<.h.>.:.<.5+6.g+#  .; v.Z Q Q M.{+ + + +,+,+/+/+/+i+'+9+9+2+7+~+~+_+]+]+;+;+*+% i.i.k.j+j+k+u.P.M p y B !+@ !+E W.k   ",
"    l+m+<.q.:.>.>.5.<.<.<.C.[.g+# # # ! 1.v.v.^ {+ +{.,+/+,+/+/+%+9+9+2+7+*+*+_+_+]+]+]+]+'.++Z.n+n+n+k+j.@  .@ i i.B t.3+3+3+%+r n   ",
"        o+d+h.<.<.<.<.a+<.5.[.p+# # # '.7 q+:+{+,+,+/+/+/+'+'+&+9+&+2+7+7+_+_+]+]+_+_+t.]+^+N r+j.q q 3+ .3+Y.Y.r > c * a (+^ * 0.&   ",
"          s s+B.C.5.h.h.5.e.r.t+# # # ~ '.}.e+e+/+,+/+/+'+9+2+2+2+7+c+7+*+_+_+_+]+^+_+_+_+%+' ; G 0.{ 0.0.0.{ { b                     ",
"              | r.6.B.e.[.6.u+c+f r f :+*+_+i+/+,+/+'+&+2+7+7+7+7+2+7+*+7+~+*+*+2+7+)+)+*+++.                                         ",
"                O v+w+r.,.u+x+m       , M.;+_+/+/+'+9+9+&+2+'+$+ + +$+%+'+9+[ [ ,+*+2+$+y+q+,                                         ",
"                  6 z+A+A+t+e+:         > % -+&+$+$+$+++++++++++q+B+f f ++++`.1 (+^ + { : >                                           ",
"                    & : : b ,             : N *+$+++%+%+%+++:+] 7 ^ ^ G { *.* 4+> 4+>                                                 ",
"                                            *.$+&+@+f 7 ; O c.*.& 4+>                                                                 ",
"                                                                                                                                      "};
